<svg xmlns="http://www.w3.org/2000/svg" width="256" height="256" viewBox="0 0 100 100"><rect width="100" height="100" rx="50" fill="#4730ed"></rect><path d="M8.45 41.79L17.41 41.79Q17.49 41.93 17.57 42.16Q17.65 42.39 17.65 42.66L17.65 42.66Q17.65 43.11 17.44 43.38Q17.22 43.66 16.82 43.66L16.82 43.66L9.47 43.66L9.47 49.27L16.47 49.27Q16.55 49.41 16.63 49.64Q16.71 49.86 16.71 50.13L16.71 50.13Q16.71 50.59 16.49 50.86Q16.28 51.13 15.87 51.13L15.87 51.13L9.47 51.13L9.47 58.18Q9.34 58.23 9.05 58.29Q8.77 58.34 8.47 58.34L8.47 58.34Q7.26 58.34 7.26 57.37L7.26 57.37L7.26 42.98Q7.26 42.44 7.58 42.12Q7.91 41.79 8.45 41.79L8.45 41.79ZM35.93 50L35.93 50Q35.93 52.11 35.34 53.71Q34.75 55.32 33.69 56.39Q32.64 57.45 31.21 58.01Q29.78 58.56 28.10 58.56L28.10 58.56Q26.43 58.56 25.00 58.01Q23.57 57.45 22.51 56.39Q21.46 55.32 20.87 53.71Q20.27 52.11 20.27 50L20.27 50Q20.27 47.89 20.88 46.30Q21.49 44.71 22.54 43.63Q23.59 42.55 25.03 41.99Q26.46 41.44 28.10 41.44L28.10 41.44Q29.75 41.44 31.18 41.99Q32.61 42.55 33.67 43.63Q34.72 44.71 35.33 46.30Q35.93 47.89 35.93 50ZM33.69 50L33.69 50Q33.69 46.76 32.17 45.03Q30.64 43.30 28.10 43.30L28.10 43.30Q26.83 43.30 25.81 43.75Q24.78 44.20 24.05 45.05Q23.32 45.90 22.93 47.14Q22.54 48.38 22.54 50L22.54 50Q22.54 53.24 24.05 54.97Q25.57 56.70 28.10 56.70L28.10 56.70Q30.67 56.70 32.18 54.97Q33.69 53.24 33.69 50ZM45.52 52.05L39.07 52.05Q38.98 51.86 38.93 51.66Q38.88 51.46 38.88 51.19L38.88 51.19Q38.88 50.27 39.82 50.27L39.82 50.27L46.27 50.27Q46.33 50.43 46.40 50.65Q46.46 50.86 46.46 51.11L46.46 51.11Q46.46 52.05 45.52 52.05L45.52 52.05ZM63.31 50.46L63.31 56.32Q63.31 56.80 63.03 57.13Q62.74 57.45 62.18 57.75L62.18 57.75Q61.50 58.07 60.31 58.32Q59.13 58.56 57.91 58.56L57.91 58.56Q56.02 58.56 54.46 58.05Q52.89 57.53 51.76 56.48Q50.62 55.43 50.00 53.82Q49.38 52.21 49.38 50.03L49.38 50.03Q49.38 47.87 50.03 46.25Q50.68 44.63 51.80 43.56Q52.92 42.49 54.40 41.97Q55.89 41.44 57.56 41.44L57.56 41.44Q58.69 41.44 59.65 41.63Q60.61 41.82 61.29 42.13Q61.96 42.44 62.34 42.82Q62.72 43.20 62.72 43.57L62.72 43.57Q62.72 43.95 62.50 44.22Q62.29 44.49 61.99 44.63L61.99 44.63Q61.26 44.14 60.26 43.72Q59.26 43.30 57.70 43.30L57.70 43.30Q56.40 43.30 55.29 43.74Q54.19 44.17 53.38 45.00Q52.57 45.84 52.11 47.11Q51.65 48.38 51.65 50.03L51.65 50.03Q51.65 51.78 52.12 53.04Q52.59 54.29 53.44 55.10Q54.29 55.91 55.44 56.30Q56.59 56.70 57.94 56.70L57.94 56.70Q58.91 56.70 59.77 56.53Q60.64 56.37 61.12 56.13L61.12 56.13L61.12 51.16L57.05 51.16Q56.97 51.03 56.89 50.80Q56.80 50.57 56.80 50.30L56.80 50.30Q56.80 49.84 57.02 49.58Q57.24 49.33 57.64 49.33L57.64 49.33L62.15 49.33Q62.64 49.33 62.97 49.64Q63.31 49.95 63.31 50.46L63.31 50.46ZM72.11 56.72L72.11 56.72Q73.92 56.72 74.85 55.90Q75.79 55.08 75.79 53.78L75.79 53.78Q75.79 52.65 75.07 51.94Q74.35 51.24 72.82 50.78L72.82 50.78L70.47 50.08Q68.74 49.57 67.75 48.57Q66.77 47.57 66.77 45.87L66.77 45.87Q66.77 44.84 67.16 44.02Q67.55 43.20 68.28 42.63Q69.01 42.06 70.02 41.75Q71.03 41.44 72.30 41.44L72.30 41.44Q73.38 41.44 74.31 41.62Q75.25 41.79 75.93 42.10Q76.62 42.41 77 42.79Q77.38 43.17 77.38 43.57L77.38 43.57Q77.38 43.95 77.19 44.22Q77 44.49 76.70 44.65L76.70 44.65Q76.00 44.11 74.88 43.71Q73.76 43.30 72.38 43.30L72.38 43.30Q70.79 43.30 69.89 43.98Q68.98 44.65 68.98 45.87L68.98 45.87Q68.98 46.81 69.63 47.41Q70.28 48.00 71.79 48.43L71.79 48.43L73.44 48.92Q75.57 49.54 76.80 50.66Q78.03 51.78 78.03 53.78L78.03 53.78Q78.03 55.91 76.49 57.24Q74.95 58.56 72.11 58.56L72.11 58.56Q70.87 58.56 69.86 58.34Q68.85 58.13 68.13 57.78Q67.42 57.42 67.02 57.01Q66.63 56.59 66.63 56.18L66.63 56.18Q66.63 55.72 66.92 55.41Q67.20 55.10 67.58 54.97L67.58 54.97Q67.87 55.27 68.31 55.58Q68.74 55.89 69.31 56.14Q69.87 56.40 70.57 56.56Q71.28 56.72 72.11 56.72ZM91.90 43.66L87.45 43.66L87.45 58.15Q87.31 58.21 87.03 58.28Q86.75 58.34 86.45 58.34L86.45 58.34Q85.26 58.34 85.26 57.34L85.26 57.34L85.26 43.66L80.21 43.66Q80.13 43.52 80.05 43.29Q79.97 43.06 79.97 42.76L79.97 42.76Q79.97 42.30 80.19 42.05Q80.40 41.79 80.81 41.79L80.81 41.79L92.50 41.79Q92.58 41.93 92.66 42.16Q92.74 42.39 92.74 42.66L92.74 42.66Q92.74 43.11 92.53 43.38Q92.31 43.66 91.90 43.66L91.90 43.66Z" fill="#fff"></path></svg>